<svg xmlns="http://www.w3.org/2000/svg" xmlns:xlink="http://www.w3.org/1999/xlink" width="500" zoomAndPan="magnify" viewBox="0 0 375 374.999991" height="500" preserveAspectRatio="xMidYMid meet" version="1.0"><defs><g/><clipPath id="bdf08e60e0"><path d="M 100.324219 57.300781 L 233 57.300781 L 233 199.0625 L 100.324219 199.0625 Z M 100.324219 57.300781 " clip-rule="nonzero"/></clipPath><clipPath id="194fe7a73a"><path d="M 232.683594 120.460938 C 232.589844 119.503906 232.523438 118.558594 232.398438 117.617188 C 232.277344 116.75 232.140625 115.898438 231.988281 115.058594 C 231.976562 114.984375 231.964844 114.90625 231.953125 114.828125 L 231.839844 114.136719 C 231.796875 113.910156 231.742188 113.683594 231.691406 113.457031 C 231.667969 113.339844 231.640625 113.230469 231.617188 113.117188 C 231.476562 112.441406 231.324219 111.777344 231.164062 111.117188 C 231.078125 110.726562 230.984375 110.34375 230.875 109.960938 C 223.332031 81.164062 198.742188 68.992188 198.742188 68.992188 C 180.46875 58.085938 160.542969 57.300781 153.777344 57.386719 C 121.191406 58.109375 100.324219 77.210938 100.324219 77.210938 C 115.792969 77.816406 126.222656 90.957031 129.578125 95.839844 C 131.265625 98.296875 133.179688 100.601562 135.359375 102.640625 C 143.792969 110.539062 153.957031 114.097656 163.609375 115.382812 C 178.660156 117.390625 193.839844 113.867188 206.578125 105.835938 C 196.015625 76.90625 174.328125 70.808594 174.328125 70.808594 C 174.328125 70.808594 213.019531 80.007812 219.597656 116.714844 C 220.289062 120.929688 221.378906 132.152344 216.457031 144.902344 L 216.363281 145.128906 L 215.855469 146.316406 C 215.691406 146.714844 215.523438 147.113281 215.328125 147.5 C 214.953125 148.277344 214.578125 149.058594 214.199219 149.839844 C 213.367188 151.371094 212.582031 152.925781 211.648438 154.410156 L 210.976562 155.539062 C 210.746094 155.910156 210.492188 156.269531 210.25 156.636719 L 209.527344 157.738281 C 209.289062 158.105469 209.050781 158.476562 208.785156 158.824219 C 208.269531 159.535156 207.75 160.246094 207.234375 160.960938 L 205.589844 163.027344 L 205.179688 163.546875 C 205.042969 163.71875 204.890625 163.882812 204.75 164.046875 L 203.878906 165.042969 L 203.011719 166.039062 L 202.097656 166.992188 L 201.1875 167.953125 L 200.734375 168.429688 L 198.351562 170.707031 L 196.367188 172.433594 C 196.207031 172.574219 196.042969 172.726562 195.875 172.863281 L 195.359375 173.269531 L 194.332031 174.082031 C 191.574219 176.210938 188.710938 178.1875 185.695312 179.816406 C 185.328125 180.042969 184.945312 180.222656 184.566406 180.417969 L 183.425781 180.996094 C 183.042969 181.1875 182.667969 181.394531 182.28125 181.566406 L 181.121094 182.078125 C 180.34375 182.414062 179.585938 182.792969 178.792969 183.066406 C 178.023438 183.355469 177.253906 183.648438 176.492188 183.9375 C 176.046875 184.082031 175.605469 184.230469 175.164062 184.375 C 174.929688 184.457031 174.753906 184.507812 174.554688 184.570312 L 173.972656 184.753906 L 173.386719 184.933594 L 172.777344 185.109375 C 172.371094 185.222656 171.964844 185.351562 171.554688 185.449219 C 169.929688 185.890625 168.300781 186.257812 166.679688 186.574219 C 165.054688 186.890625 163.441406 187.117188 161.835938 187.300781 C 161.433594 187.34375 161.035156 187.382812 160.636719 187.425781 C 160.234375 187.453125 159.835938 187.480469 159.441406 187.511719 C 159.042969 187.546875 158.644531 187.5625 158.25 187.578125 C 157.855469 187.59375 157.457031 187.625 157.066406 187.625 C 155.492188 187.667969 153.941406 187.613281 152.410156 187.527344 C 152.027344 187.496094 151.644531 187.46875 151.265625 187.4375 L 150.980469 187.414062 C 151.035156 187.425781 150.757812 187.382812 151.085938 187.4375 L 151.007812 187.425781 L 150.851562 187.40625 L 150.222656 187.316406 C 149.390625 187.203125 148.5625 187.089844 147.738281 186.980469 C 146.363281 186.6875 145.015625 186.488281 143.574219 186.066406 C 142.140625 185.746094 140.789062 185.222656 139.417969 184.800781 C 138.75 184.542969 138.085938 184.28125 137.425781 184.023438 C 137.097656 183.890625 136.761719 183.777344 136.441406 183.632812 C 136.125 183.480469 135.804688 183.335938 135.488281 183.1875 C 134.859375 182.886719 134.214844 182.621094 133.605469 182.296875 C 133 181.96875 132.394531 181.652344 131.789062 181.339844 C 131.175781 181.039062 130.609375 180.671875 130.03125 180.335938 C 129.460938 179.992188 128.875 179.675781 128.328125 179.308594 C 127.242188 178.570312 126.140625 177.890625 125.128906 177.128906 C 124.617188 176.757812 124.109375 176.390625 123.609375 176.03125 C 123.125 175.644531 122.648438 175.265625 122.175781 174.890625 C 121.214844 174.152344 120.339844 173.371094 119.464844 172.628906 C 116.011719 169.617188 113.21875 166.664062 110.984375 164.15625 C 108.734375 161.648438 107.082031 159.554688 105.9375 158.128906 C 104.808594 156.6875 104.210938 155.917969 104.210938 155.917969 C 104.210938 155.917969 104.296875 156.148438 104.46875 156.589844 C 104.644531 157.027344 104.894531 157.6875 105.257812 158.53125 C 105.617188 159.378906 106.070312 160.417969 106.644531 161.628906 C 106.929688 162.230469 107.238281 162.878906 107.589844 163.566406 C 107.933594 164.25 108.332031 164.964844 108.742188 165.730469 C 110.394531 168.769531 112.609375 172.382812 115.636719 176.242188 C 118.675781 180.078125 122.507812 184.210938 127.472656 187.957031 C 128.101562 188.421875 128.734375 188.882812 129.382812 189.347656 C 130.03125 189.808594 130.726562 190.21875 131.40625 190.664062 C 131.753906 190.882812 132.101562 191.101562 132.445312 191.324219 C 132.792969 191.546875 133.164062 191.734375 133.527344 191.941406 C 134.257812 192.347656 134.996094 192.753906 135.742188 193.164062 C 137.28125 193.898438 138.839844 194.683594 140.507812 195.292969 C 142.109375 195.980469 143.96875 196.507812 145.808594 197.070312 C 146.625 197.269531 147.441406 197.46875 148.261719 197.671875 L 148.878906 197.820312 L 149.113281 197.878906 L 149.375 197.925781 L 149.71875 197.988281 C 150.179688 198.070312 150.644531 198.15625 151.109375 198.242188 C 152.96875 198.539062 154.863281 198.773438 156.785156 198.890625 C 158.703125 199.003906 160.652344 199.0625 162.605469 198.988281 C 164.558594 198.917969 166.527344 198.796875 168.496094 198.546875 C 170.460938 198.300781 172.433594 198.003906 174.394531 197.585938 C 174.886719 197.496094 175.371094 197.375 175.863281 197.269531 L 176.597656 197.101562 L 177.355469 196.914062 L 178.117188 196.722656 C 178.363281 196.660156 178.640625 196.59375 178.851562 196.535156 C 179.300781 196.410156 179.75 196.285156 180.199219 196.160156 L 180.367188 196.117188 L 180.625 196.035156 L 180.992188 195.914062 L 181.730469 195.675781 C 182.222656 195.515625 182.71875 195.355469 183.210938 195.195312 C 184.210938 194.894531 185.167969 194.488281 186.144531 194.113281 C 186.628906 193.917969 187.113281 193.726562 187.601562 193.535156 C 188.085938 193.335938 188.554688 193.105469 189.03125 192.890625 L 190.457031 192.230469 C 190.933594 192.007812 191.414062 191.792969 191.875 191.539062 C 192.796875 191.042969 193.726562 190.546875 194.65625 190.050781 C 195.566406 189.523438 196.457031 188.964844 197.363281 188.417969 C 198.277344 187.886719 199.128906 187.269531 200.003906 186.675781 L 201.308594 185.773438 C 201.734375 185.460938 202.148438 185.136719 202.570312 184.816406 L 203.828125 183.851562 L 204.457031 183.367188 C 204.664062 183.203125 204.863281 183.027344 205.066406 182.859375 L 207.476562 180.796875 L 209.78125 178.617188 L 210.355469 178.070312 L 210.902344 177.496094 L 212 176.355469 C 214.882812 173.265625 217.574219 170 219.90625 166.503906 C 220.21875 166.078125 220.496094 165.632812 220.777344 165.191406 L 221.617188 163.859375 C 221.894531 163.414062 222.179688 162.976562 222.445312 162.523438 L 223.21875 161.160156 C 224.273438 159.355469 225.191406 157.480469 226.097656 155.613281 C 227.84375 151.84375 229.257812 147.957031 230.371094 144.03125 C 230.625 143.046875 230.878906 142.058594 231.136719 141.078125 C 231.339844 140.082031 231.542969 139.09375 231.746094 138.105469 C 231.96875 137.125 232.074219 136.121094 232.230469 135.128906 C 232.300781 134.636719 232.371094 134.140625 232.441406 133.648438 C 232.511719 133.15625 232.542969 132.65625 232.589844 132.160156 C 233.015625 128.210938 232.996094 124.273438 232.683594 120.460938 Z M 232.683594 120.460938 " clip-rule="nonzero"/></clipPath><clipPath id="90e4890d1c"><path d="M 232.683594 120.460938 C 232.589844 119.503906 232.523438 118.558594 232.398438 117.617188 C 232.277344 116.75 232.140625 115.898438 231.988281 115.058594 C 231.976562 114.984375 231.964844 114.90625 231.953125 114.828125 L 231.839844 114.136719 C 231.796875 113.910156 231.742188 113.683594 231.691406 113.457031 C 231.667969 113.339844 231.640625 113.230469 231.617188 113.117188 C 231.476562 112.441406 231.324219 111.777344 231.164062 111.117188 C 231.078125 110.726562 230.984375 110.34375 230.875 109.960938 C 223.332031 81.164062 198.742188 68.992188 198.742188 68.992188 C 180.46875 58.085938 160.542969 57.300781 153.777344 57.386719 C 121.191406 58.109375 100.324219 77.210938 100.324219 77.210938 C 115.792969 77.816406 126.222656 90.957031 129.578125 95.839844 C 131.265625 98.296875 133.179688 100.601562 135.359375 102.640625 C 143.792969 110.539062 153.957031 114.097656 163.609375 115.382812 C 178.660156 117.390625 193.839844 113.867188 206.578125 105.835938 C 196.015625 76.90625 174.328125 70.808594 174.328125 70.808594 C 174.328125 70.808594 213.019531 80.007812 219.597656 116.714844 C 220.289062 120.929688 221.378906 132.152344 216.457031 144.902344 L 216.363281 145.128906 L 215.855469 146.316406 C 215.691406 146.714844 215.523438 147.113281 215.328125 147.5 C 214.953125 148.277344 214.578125 149.058594 214.199219 149.839844 C 213.367188 151.371094 212.582031 152.925781 211.648438 154.410156 L 210.976562 155.539062 C 210.746094 155.910156 210.492188 156.269531 210.25 156.636719 L 209.527344 157.738281 C 209.289062 158.105469 209.050781 158.476562 208.785156 158.824219 C 208.269531 159.535156 207.75 160.246094 207.234375 160.960938 L 205.589844 163.027344 L 205.179688 163.546875 C 205.042969 163.71875 204.890625 163.882812 204.75 164.046875 L 203.878906 165.042969 L 203.011719 166.039062 L 202.097656 166.992188 L 201.1875 167.953125 L 200.734375 168.429688 L 198.351562 170.707031 L 196.367188 172.433594 C 196.207031 172.574219 196.042969 172.726562 195.875 172.863281 L 195.359375 173.269531 L 194.332031 174.082031 C 191.574219 176.210938 188.710938 178.1875 185.695312 179.816406 C 185.328125 180.042969 184.945312 180.222656 184.566406 180.417969 L 183.425781 180.996094 C 183.042969 181.1875 182.667969 181.394531 182.28125 181.566406 L 181.121094 182.078125 C 180.34375 182.414062 179.585938 182.792969 178.792969 183.066406 C 178.023438 183.355469 177.253906 183.648438 176.492188 183.9375 C 176.046875 184.082031 175.605469 184.230469 175.164062 184.375 C 174.929688 184.457031 174.753906 184.507812 174.554688 184.570312 L 173.972656 184.753906 L 173.386719 184.933594 L 172.777344 185.109375 C 172.371094 185.222656 171.964844 185.351562 171.554688 185.449219 C 169.929688 185.890625 168.300781 186.257812 166.679688 186.574219 C 165.054688 186.890625 163.441406 187.117188 161.835938 187.300781 C 161.433594 187.34375 161.035156 187.382812 160.636719 187.425781 C 160.234375 187.453125 159.835938 187.480469 159.441406 187.511719 C 159.042969 187.546875 158.644531 187.5625 158.25 187.578125 C 157.855469 187.59375 157.457031 187.625 157.066406 187.625 C 155.492188 187.667969 153.941406 187.613281 152.410156 187.527344 C 152.027344 187.496094 151.644531 187.46875 151.265625 187.4375 L 150.980469 187.414062 C 151.035156 187.425781 150.757812 187.382812 151.085938 187.4375 L 151.007812 187.425781 L 150.851562 187.40625 L 150.222656 187.316406 C 149.390625 187.203125 148.5625 187.089844 147.738281 186.980469 C 146.363281 186.6875 145.015625 186.488281 143.574219 186.066406 C 142.140625 185.746094 140.789062 185.222656 139.417969 184.800781 C 138.75 184.542969 138.085938 184.28125 137.425781 184.023438 C 137.097656 183.890625 136.761719 183.777344 136.441406 183.632812 C 136.125 183.480469 135.804688 183.335938 135.488281 183.1875 C 134.859375 182.886719 134.214844 182.621094 133.605469 182.296875 C 133 181.96875 132.394531 181.652344 131.789062 181.339844 C 131.175781 181.039062 130.609375 180.671875 130.03125 180.335938 C 129.460938 179.992188 128.875 179.675781 128.328125 179.308594 C 127.242188 178.570312 126.140625 177.890625 125.128906 177.128906 C 124.617188 176.757812 124.109375 176.390625 123.609375 176.03125 C 123.125 175.644531 122.648438 175.265625 122.175781 174.890625 C 121.214844 174.152344 120.339844 173.371094 119.464844 172.628906 C 116.011719 169.617188 113.21875 166.664062 110.984375 164.15625 C 108.734375 161.648438 107.082031 159.554688 105.9375 158.128906 C 104.808594 156.6875 104.210938 155.917969 104.210938 155.917969 C 104.210938 155.917969 104.296875 156.148438 104.46875 156.589844 C 104.644531 157.027344 104.894531 157.6875 105.257812 158.53125 C 105.617188 159.378906 106.070312 160.417969 106.644531 161.628906 C 106.929688 162.230469 107.238281 162.878906 107.589844 163.566406 C 107.933594 164.25 108.332031 164.964844 108.742188 165.730469 C 110.394531 168.769531 112.609375 172.382812 115.636719 176.242188 C 118.675781 180.078125 122.507812 184.210938 127.472656 187.957031 C 128.101562 188.421875 128.734375 188.882812 129.382812 189.347656 C 130.03125 189.808594 130.726562 190.21875 131.40625 190.664062 C 131.753906 190.882812 132.101562 191.101562 132.445312 191.324219 C 132.792969 191.546875 133.164062 191.734375 133.527344 191.941406 C 134.257812 192.347656 134.996094 192.753906 135.742188 193.164062 C 137.28125 193.898438 138.839844 194.683594 140.507812 195.292969 C 142.109375 195.980469 143.96875 196.507812 145.808594 197.070312 C 146.625 197.269531 147.441406 197.46875 148.261719 197.671875 L 148.878906 197.820312 L 149.113281 197.878906 L 149.375 197.925781 L 149.71875 197.988281 C 150.179688 198.070312 150.644531 198.15625 151.109375 198.242188 C 152.96875 198.539062 154.863281 198.773438 156.785156 198.890625 C 158.703125 199.003906 160.652344 199.0625 162.605469 198.988281 C 164.558594 198.917969 166.527344 198.796875 168.496094 198.546875 C 170.460938 198.300781 172.433594 198.003906 174.394531 197.585938 C 174.886719 197.496094 175.371094 197.375 175.863281 197.269531 L 176.597656 197.101562 L 177.355469 196.914062 L 178.117188 196.722656 C 178.363281 196.660156 178.640625 196.59375 178.851562 196.535156 C 179.300781 196.410156 179.75 196.285156 180.199219 196.160156 L 180.367188 196.117188 L 180.625 196.035156 L 180.992188 195.914062 L 181.730469 195.675781 C 182.222656 195.515625 182.71875 195.355469 183.210938 195.195312 C 184.210938 194.894531 185.167969 194.488281 186.144531 194.113281 C 186.628906 193.917969 187.113281 193.726562 187.601562 193.535156 C 188.085938 193.335938 188.554688 193.105469 189.03125 192.890625 L 190.457031 192.230469 C 190.933594 192.007812 191.414062 191.792969 191.875 191.539062 C 192.796875 191.042969 193.726562 190.546875 194.65625 190.050781 C 195.566406 189.523438 196.457031 188.964844 197.363281 188.417969 C 198.277344 187.886719 199.128906 187.269531 200.003906 186.675781 L 201.308594 185.773438 C 201.734375 185.460938 202.148438 185.136719 202.570312 184.816406 L 203.828125 183.851562 L 204.457031 183.367188 C 204.664062 183.203125 204.863281 183.027344 205.066406 182.859375 L 207.476562 180.796875 L 209.78125 178.617188 L 210.355469 178.070312 L 210.902344 177.496094 L 212 176.355469 C 214.882812 173.265625 217.574219 170 219.90625 166.503906 C 220.21875 166.078125 220.496094 165.632812 220.777344 165.191406 L 221.617188 163.859375 C 221.894531 163.414062 222.179688 162.976562 222.445312 162.523438 L 223.21875 161.160156 C 224.273438 159.355469 225.191406 157.480469 226.097656 155.613281 C 227.84375 151.84375 229.257812 147.957031 230.371094 144.03125 C 230.625 143.046875 230.878906 142.058594 231.136719 141.078125 C 231.339844 140.082031 231.542969 139.09375 231.746094 138.105469 C 231.96875 137.125 232.074219 136.121094 232.230469 135.128906 C 232.300781 134.636719 232.371094 134.140625 232.441406 133.648438 C 232.511719 133.15625 232.542969 132.65625 232.589844 132.160156 C 233.015625 128.210938 232.996094 124.273438 232.683594 120.460938 " clip-rule="nonzero"/></clipPath><linearGradient x1="-0.00000177116" gradientTransform="matrix(132.590207, 0, 0, 132.649823, 100.32448, 128.201977)" y1="0" x2="1.000775" gradientUnits="userSpaceOnUse" y2="0" id="18a9106421"><stop stop-opacity="1" stop-color="rgb(8.999634%, 63.899231%, 32.499695%)" offset="0"/><stop stop-opacity="1" stop-color="rgb(9.005737%, 63.899231%, 32.499695%)" offset="0.03125"/><stop stop-opacity="1" stop-color="rgb(9.207153%, 63.899231%, 32.499695%)" offset="0.0390625"/><stop stop-opacity="1" stop-color="rgb(9.597778%, 63.899231%, 32.499695%)" offset="0.046875"/><stop stop-opacity="1" stop-color="rgb(9.986877%, 64.089966%, 32.354736%)" offset="0.0546875"/><stop stop-opacity="1" stop-color="rgb(10.377502%, 64.289856%, 32.2052%)" offset="0.0625"/><stop stop-opacity="1" stop-color="rgb(10.792542%, 64.306641%, 32.199097%)" offset="0.0664063"/><stop stop-opacity="1" stop-color="rgb(11.013794%, 64.31427%, 32.199097%)" offset="0.0703125"/><stop stop-opacity="1" stop-color="rgb(11.209106%, 64.506531%, 32.196045%)" offset="0.078125"/><stop stop-opacity="1" stop-color="rgb(11.599731%, 64.698792%, 31.999207%)" offset="0.0859375"/><stop stop-opacity="1" stop-color="rgb(11.79657%, 64.698792%, 31.800842%)" offset="0.09375"/><stop stop-opacity="1" stop-color="rgb(11.987305%, 64.698792%, 31.799316%)" offset="0.101563"/><stop stop-opacity="1" stop-color="rgb(12.345886%, 64.898682%, 31.799316%)" offset="0.105469"/><stop stop-opacity="1" stop-color="rgb(12.516785%, 65.098572%, 31.799316%)" offset="0.109375"/><stop stop-opacity="1" stop-color="rgb(12.712097%, 65.098572%, 31.794739%)" offset="0.117188"/><stop stop-opacity="1" stop-color="rgb(13.102722%, 65.098572%, 31.596375%)" offset="0.125"/><stop stop-opacity="1" stop-color="rgb(13.493347%, 65.098572%, 31.399536%)" offset="0.132813"/><stop stop-opacity="1" stop-color="rgb(13.883972%, 65.287781%, 31.399536%)" offset="0.140625"/><stop stop-opacity="1" stop-color="rgb(14.28833%, 65.489197%, 31.388855%)" offset="0.144531"/><stop stop-opacity="1" stop-color="rgb(14.498901%, 65.499878%, 31.3797%)" offset="0.148438"/><stop stop-opacity="1" stop-color="rgb(14.503479%, 65.499878%, 31.188965%)" offset="0.15625"/><stop stop-opacity="1" stop-color="rgb(14.704895%, 65.499878%, 30.999756%)" offset="0.164062"/><stop stop-opacity="1" stop-color="rgb(15.09552%, 65.69519%, 30.999756%)" offset="0.171875"/><stop stop-opacity="1" stop-color="rgb(15.486145%, 65.895081%, 30.999756%)" offset="0.179687"/><stop stop-opacity="1" stop-color="rgb(15.87677%, 65.899658%, 30.812073%)" offset="0.1875"/><stop stop-opacity="1" stop-color="rgb(16.291809%, 66.099548%, 30.612183%)" offset="0.191406"/><stop stop-opacity="1" stop-color="rgb(16.513062%, 66.299438%, 30.599976%)" offset="0.195313"/><stop stop-opacity="1" stop-color="rgb(16.708374%, 66.299438%, 30.599976%)" offset="0.203125"/><stop stop-opacity="1" stop-color="rgb(17.098999%, 66.299438%, 30.599976%)" offset="0.210938"/><stop stop-opacity="1" stop-color="rgb(17.440796%, 66.299438%, 30.406189%)" offset="0.21875"/><stop stop-opacity="1" stop-color="rgb(17.593384%, 66.487122%, 30.206299%)" offset="0.226562"/><stop stop-opacity="1" stop-color="rgb(17.807007%, 66.687012%, 30.198669%)" offset="0.230469"/><stop stop-opacity="1" stop-color="rgb(18.014526%, 66.699219%, 30.198669%)" offset="0.234375"/><stop stop-opacity="1" stop-color="rgb(18.209839%, 66.699219%, 30.198669%)" offset="0.242187"/><stop stop-opacity="1" stop-color="rgb(18.600464%, 66.699219%, 30.198669%)" offset="0.25"/><stop stop-opacity="1" stop-color="rgb(18.991089%, 66.893005%, 30.004883%)" offset="0.257813"/><stop stop-opacity="1" stop-color="rgb(19.381714%, 67.092896%, 29.804993%)" offset="0.265625"/><stop stop-opacity="1" stop-color="rgb(19.796753%, 67.108154%, 29.798889%)" offset="0.269531"/><stop stop-opacity="1" stop-color="rgb(20.018005%, 67.11731%, 29.798889%)" offset="0.273438"/><stop stop-opacity="1" stop-color="rgb(20.20874%, 67.308044%, 29.794312%)" offset="0.28125"/><stop stop-opacity="1" stop-color="rgb(20.594788%, 67.498779%, 29.594421%)" offset="0.296875"/><stop stop-opacity="1" stop-color="rgb(20.985413%, 67.498779%, 29.399109%)" offset="0.304688"/><stop stop-opacity="1" stop-color="rgb(21.376038%, 67.637634%, 29.399109%)" offset="0.3125"/><stop stop-opacity="1" stop-color="rgb(21.791077%, 67.788696%, 29.199219%)" offset="0.316406"/><stop stop-opacity="1" stop-color="rgb(22.010803%, 67.799377%, 28.999329%)" offset="0.320313"/><stop stop-opacity="1" stop-color="rgb(22.206116%, 67.799377%, 28.999329%)" offset="0.328125"/><stop stop-opacity="1" stop-color="rgb(22.547913%, 67.799377%, 28.999329%)" offset="0.335938"/><stop stop-opacity="1" stop-color="rgb(22.888184%, 67.990112%, 28.999329%)" offset="0.34375"/><stop stop-opacity="1" stop-color="rgb(23.091125%, 68.190002%, 28.811646%)" offset="0.351563"/><stop stop-opacity="1" stop-color="rgb(23.306274%, 68.199158%, 28.611755%)" offset="0.355469"/><stop stop-opacity="1" stop-color="rgb(23.513794%, 68.199158%, 28.599548%)" offset="0.359375"/><stop stop-opacity="1" stop-color="rgb(23.709106%, 68.200684%, 28.599548%)" offset="0.367188"/><stop stop-opacity="1" stop-color="rgb(24.099731%, 68.399048%, 28.599548%)" offset="0.375"/><stop stop-opacity="1" stop-color="rgb(24.490356%, 68.595886%, 28.599548%)" offset="0.382813"/><stop stop-opacity="1" stop-color="rgb(24.880981%, 68.598938%, 28.410339%)" offset="0.390625"/><stop stop-opacity="1" stop-color="rgb(25.296021%, 68.798828%, 28.210449%)" offset="0.394531"/><stop stop-opacity="1" stop-color="rgb(25.517273%, 68.998718%, 28.199768%)" offset="0.398438"/><stop stop-opacity="1" stop-color="rgb(25.71106%, 68.998718%, 28.199768%)" offset="0.40625"/><stop stop-opacity="1" stop-color="rgb(26.101685%, 68.998718%, 28.199768%)" offset="0.414062"/><stop stop-opacity="1" stop-color="rgb(26.296997%, 68.998718%, 28.004456%)" offset="0.421875"/><stop stop-opacity="1" stop-color="rgb(26.487732%, 69.187927%, 27.804565%)" offset="0.429688"/><stop stop-opacity="1" stop-color="rgb(26.873779%, 69.387817%, 27.799988%)" offset="0.4375"/><stop stop-opacity="1" stop-color="rgb(27.287292%, 69.398499%, 27.79541%)" offset="0.441406"/><stop stop-opacity="1" stop-color="rgb(27.507019%, 69.398499%, 27.790833%)" offset="0.445313"/><stop stop-opacity="1" stop-color="rgb(27.653503%, 69.398499%, 27.644348%)" offset="0.453125"/><stop stop-opacity="1" stop-color="rgb(27.9953%, 69.595337%, 27.49939%)" offset="0.460938"/><stop stop-opacity="1" stop-color="rgb(28.385925%, 69.795227%, 27.49939%)" offset="0.46875"/><stop stop-opacity="1" stop-color="rgb(28.77655%, 69.799805%, 27.49939%)" offset="0.476563"/><stop stop-opacity="1" stop-color="rgb(28.991699%, 69.999695%, 27.49176%)" offset="0.480469"/><stop stop-opacity="1" stop-color="rgb(29.013062%, 70.199585%, 27.485657%)" offset="0.484375"/><stop stop-opacity="1" stop-color="rgb(29.208374%, 70.199585%, 27.29187%)" offset="0.492188"/><stop stop-opacity="1" stop-color="rgb(29.598999%, 70.199585%, 27.099609%)" offset="0.5"/><stop stop-opacity="1" stop-color="rgb(29.988098%, 70.199585%, 27.099609%)" offset="0.507812"/><stop stop-opacity="1" stop-color="rgb(30.378723%, 70.387268%, 27.099609%)" offset="0.515625"/><stop stop-opacity="1" stop-color="rgb(30.793762%, 70.587158%, 26.899719%)" offset="0.519531"/><stop stop-opacity="1" stop-color="rgb(31.015015%, 70.599365%, 26.699829%)" offset="0.523438"/><stop stop-opacity="1" stop-color="rgb(31.210327%, 70.602417%, 26.699829%)" offset="0.53125"/><stop stop-opacity="1" stop-color="rgb(31.600952%, 70.800781%, 26.699829%)" offset="0.539062"/><stop stop-opacity="1" stop-color="rgb(31.991577%, 70.99762%, 26.699829%)" offset="0.546875"/><stop stop-opacity="1" stop-color="rgb(32.192993%, 70.999146%, 26.51062%)" offset="0.554688"/><stop stop-opacity="1" stop-color="rgb(32.336426%, 70.999146%, 26.309204%)" offset="0.5625"/><stop stop-opacity="1" stop-color="rgb(32.691956%, 71.199036%, 26.298523%)" offset="0.566406"/><stop stop-opacity="1" stop-color="rgb(32.90863%, 71.398926%, 26.298523%)" offset="0.570312"/><stop stop-opacity="1" stop-color="rgb(33.103943%, 71.398926%, 26.298523%)" offset="0.578125"/><stop stop-opacity="1" stop-color="rgb(33.494568%, 71.398926%, 26.10321%)" offset="0.585938"/><stop stop-opacity="1" stop-color="rgb(33.885193%, 71.398926%, 25.90332%)" offset="0.59375"/><stop stop-opacity="1" stop-color="rgb(34.275818%, 71.585083%, 25.898743%)" offset="0.601562"/><stop stop-opacity="1" stop-color="rgb(34.684753%, 71.784973%, 25.898743%)" offset="0.605469"/><stop stop-opacity="1" stop-color="rgb(34.899902%, 71.798706%, 25.898743%)" offset="0.609375"/><stop stop-opacity="1" stop-color="rgb(34.899902%, 71.800232%, 25.897217%)" offset="0.617188"/><stop stop-opacity="1" stop-color="rgb(35.096741%, 71.99707%, 25.701904%)" offset="0.625"/><stop stop-opacity="1" stop-color="rgb(35.487366%, 72.195435%, 25.502014%)" offset="0.632812"/><stop stop-opacity="1" stop-color="rgb(35.877991%, 72.198486%, 25.498962%)" offset="0.640625"/><stop stop-opacity="1" stop-color="rgb(36.29303%, 72.20459%, 25.491333%)" offset="0.644531"/><stop stop-opacity="1" stop-color="rgb(36.514282%, 72.210693%, 25.485229%)" offset="0.648438"/><stop stop-opacity="1" stop-color="rgb(36.709595%, 72.354126%, 25.291443%)" offset="0.65625"/><stop stop-opacity="1" stop-color="rgb(37.10022%, 72.499084%, 25.099182%)" offset="0.664062"/><stop stop-opacity="1" stop-color="rgb(37.442017%, 72.499084%, 25.099182%)" offset="0.671875"/><stop stop-opacity="1" stop-color="rgb(37.782288%, 72.686768%, 25.099182%)" offset="0.679688"/><stop stop-opacity="1" stop-color="rgb(37.986755%, 72.886658%, 24.914551%)" offset="0.6875"/><stop stop-opacity="1" stop-color="rgb(38.201904%, 72.898865%, 24.714661%)" offset="0.691406"/><stop stop-opacity="1" stop-color="rgb(38.406372%, 72.898865%, 24.699402%)" offset="0.695312"/><stop stop-opacity="1" stop-color="rgb(38.601685%, 72.898865%, 24.699402%)" offset="0.703125"/><stop stop-opacity="1" stop-color="rgb(38.99231%, 73.092651%, 24.699402%)" offset="0.710938"/><stop stop-opacity="1" stop-color="rgb(39.382935%, 73.292542%, 24.508667%)" offset="0.71875"/><stop stop-opacity="1" stop-color="rgb(39.77356%, 73.298645%, 24.308777%)" offset="0.726562"/><stop stop-opacity="1" stop-color="rgb(40.188599%, 73.303223%, 24.299622%)" offset="0.730469"/><stop stop-opacity="1" stop-color="rgb(40.409851%, 73.309326%, 24.299622%)" offset="0.734375"/><stop stop-opacity="1" stop-color="rgb(40.603638%, 73.504639%, 24.299622%)" offset="0.75"/><stop stop-opacity="1" stop-color="rgb(40.989685%, 73.699951%, 24.107361%)" offset="0.757812"/><stop stop-opacity="1" stop-color="rgb(41.377258%, 73.886108%, 23.907471%)" offset="0.765625"/><stop stop-opacity="1" stop-color="rgb(41.792297%, 74.085999%, 23.899841%)" offset="0.769531"/><stop stop-opacity="1" stop-color="rgb(42.012024%, 74.099731%, 23.899841%)" offset="0.773438"/><stop stop-opacity="1" stop-color="rgb(42.207336%, 74.099731%, 23.89679%)" offset="0.78125"/><stop stop-opacity="1" stop-color="rgb(42.549133%, 74.099731%, 23.699951%)" offset="0.789062"/><stop stop-opacity="1" stop-color="rgb(42.889404%, 74.291992%, 23.501587%)" offset="0.796875"/><stop stop-opacity="1" stop-color="rgb(43.278503%, 74.491882%, 23.498535%)" offset="0.804688"/><stop stop-opacity="1" stop-color="rgb(43.669128%, 74.499512%, 23.498535%)" offset="0.8125"/><stop stop-opacity="1" stop-color="rgb(43.884277%, 74.699402%, 23.298645%)" offset="0.816406"/><stop stop-opacity="1" stop-color="rgb(43.90564%, 74.899292%, 23.098755%)" offset="0.820312"/><stop stop-opacity="1" stop-color="rgb(44.100952%, 74.899292%, 23.098755%)" offset="0.828125"/><stop stop-opacity="1" stop-color="rgb(44.491577%, 74.899292%, 23.098755%)" offset="0.835938"/><stop stop-opacity="1" stop-color="rgb(44.882202%, 74.899292%, 23.098755%)" offset="0.84375"/><stop stop-opacity="1" stop-color="rgb(45.272827%, 75.082397%, 22.914124%)" offset="0.851562"/><stop stop-opacity="1" stop-color="rgb(45.687866%, 75.282288%, 22.714233%)" offset="0.855469"/><stop stop-opacity="1" stop-color="rgb(45.907593%, 75.299072%, 22.698975%)" offset="0.859375"/><stop stop-opacity="1" stop-color="rgb(46.102905%, 75.299072%, 22.698975%)" offset="0.867188"/><stop stop-opacity="1" stop-color="rgb(46.49353%, 75.494385%, 22.698975%)" offset="0.875"/><stop stop-opacity="1" stop-color="rgb(46.879578%, 75.694275%, 22.56012%)" offset="0.890625"/><stop stop-opacity="1" stop-color="rgb(47.288513%, 75.704956%, 22.410583%)" offset="0.894531"/><stop stop-opacity="1" stop-color="rgb(47.50824%, 75.71106%, 22.399902%)" offset="0.898438"/><stop stop-opacity="1" stop-color="rgb(47.654724%, 75.904846%, 22.399902%)" offset="0.90625"/><stop stop-opacity="1" stop-color="rgb(47.996521%, 76.098633%, 22.399902%)" offset="0.914062"/><stop stop-opacity="1" stop-color="rgb(48.387146%, 76.098633%, 22.207642%)" offset="0.921875"/><stop stop-opacity="1" stop-color="rgb(48.777771%, 76.28479%, 22.006226%)" offset="0.929688"/><stop stop-opacity="1" stop-color="rgb(49.168396%, 76.486206%, 21.998596%)" offset="0.9375"/><stop stop-opacity="1" stop-color="rgb(49.580383%, 76.499939%, 21.995544%)" offset="0.941406"/><stop stop-opacity="1" stop-color="rgb(49.798584%, 76.499939%, 21.994019%)" offset="0.945312"/><stop stop-opacity="1" stop-color="rgb(49.798584%, 76.499939%, 21.798706%)" offset="0.953125"/><stop stop-opacity="1" stop-color="rgb(49.990845%, 76.6922%, 21.600342%)" offset="0.960938"/><stop stop-opacity="1" stop-color="rgb(50.379944%, 76.89209%, 21.598816%)" offset="0.96875"/><stop stop-opacity="1" stop-color="rgb(50.770569%, 76.899719%, 21.598816%)" offset="0.976562"/><stop stop-opacity="1" stop-color="rgb(51.185608%, 76.902771%, 21.398926%)" offset="0.980469"/><stop stop-opacity="1" stop-color="rgb(51.40686%, 76.907349%, 21.199036%)" offset="0.984375"/><stop stop-opacity="1" stop-color="rgb(51.602173%, 77.102661%, 21.199036%)" offset="0.992188"/><stop stop-opacity="1" stop-color="rgb(51.992798%, 77.297974%, 21.199036%)" offset="1"/></linearGradient><clipPath id="337a788ea8"><path d="M 222 55.113281 L 256 55.113281 L 256 88 L 222 88 Z M 222 55.113281 " clip-rule="nonzero"/></clipPath></defs><g clip-path="url(#bdf08e60e0)"><g clip-path="url(#194fe7a73a)"><g clip-path="url(#90e4890d1c)"><path fill="url(#18a9106421)" d="M 100.324219 57.300781 L 100.324219 199.0625 L 233.015625 199.0625 L 233.015625 57.300781 Z M 100.324219 57.300781 " fill-rule="nonzero"/></g></g></g><path fill="#7c7d7b" d="M 264.429688 57.382812 C 269.457031 99.144531 236.132812 99.414062 236.132812 99.414062 C 237.1875 102.054688 238.121094 104.847656 238.898438 107.796875 C 239.015625 108.226562 239.128906 108.679688 239.25 109.210938 C 239.425781 109.9375 239.589844 110.660156 239.734375 111.355469 L 239.851562 111.878906 C 239.902344 112.097656 239.949219 112.320312 239.992188 112.539062 L 240.019531 112.675781 L 240.179688 113.671875 C 240.359375 114.6875 240.507812 115.609375 240.628906 116.484375 L 240.632812 116.519531 C 240.738281 117.320312 240.808594 118.085938 240.871094 118.761719 C 240.894531 119.046875 240.921875 119.335938 240.949219 119.625 L 240.964844 119.785156 C 241.339844 124.394531 241.300781 128.851562 240.855469 133.023438 C 240.84375 133.140625 240.832031 133.253906 240.824219 133.375 C 240.789062 133.773438 240.746094 134.273438 240.664062 134.839844 L 240.441406 136.398438 C 240.402344 136.644531 240.371094 136.890625 240.332031 137.132812 C 240.21875 137.941406 240.09375 138.851562 239.867188 139.859375 L 239.230469 142.960938 L 238.390625 146.210938 L 238.363281 146.304688 C 237.699219 148.644531 236.941406 150.949219 236.097656 153.195312 L 228.257812 168.90625 C 296.816406 117.394531 264.429688 57.382812 264.429688 57.382812 " fill-opacity="1" fill-rule="nonzero"/><g clip-path="url(#337a788ea8)"><path fill="#7c7d7b" d="M 255.007812 71.277344 C 255.007812 80.152344 247.816406 87.347656 238.941406 87.347656 C 230.070312 87.347656 222.878906 80.152344 222.878906 71.277344 C 222.878906 62.398438 230.070312 55.203125 238.941406 55.203125 C 247.816406 55.203125 255.007812 62.398438 255.007812 71.277344 " fill-opacity="1" fill-rule="nonzero"/></g><g fill="#7d7b7b" fill-opacity="1"><g transform="translate(144.559974, 242.763294)"><g><path d="M 22.625 -17.734375 C 24.238281 -17.097656 25.554688 -16.125 26.578125 -14.8125 C 27.597656 -13.5 28.109375 -11.804688 28.109375 -9.734375 C 28.109375 -6.109375 27.070312 -3.578125 25 -2.140625 C 22.9375 -0.710938 20.472656 0 17.609375 0 L 6.21875 0 C 5.425781 0 4.757812 -0.265625 4.21875 -0.796875 C 3.6875 -1.328125 3.421875 -1.988281 3.421875 -2.78125 L 3.421875 -29.21875 C 3.421875 -30.007812 3.6875 -30.671875 4.21875 -31.203125 C 4.757812 -31.734375 5.425781 -32 6.21875 -32 L 17.734375 -32 C 23.523438 -32 26.421875 -29.285156 26.421875 -23.859375 C 26.421875 -22.492188 26.09375 -21.285156 25.4375 -20.234375 C 24.78125 -19.179688 23.84375 -18.347656 22.625 -17.734375 Z M 20.484375 -22.859375 C 20.484375 -24.109375 20.171875 -25.046875 19.546875 -25.671875 C 18.921875 -26.296875 18.046875 -26.609375 16.921875 -26.609375 L 9.375 -26.609375 L 9.375 -19.46875 L 17.046875 -19.46875 C 17.960938 -19.46875 18.765625 -19.773438 19.453125 -20.390625 C 20.140625 -21.003906 20.484375 -21.828125 20.484375 -22.859375 Z M 17.609375 -5.25 C 19.035156 -5.25 20.148438 -5.628906 20.953125 -6.390625 C 21.765625 -7.160156 22.171875 -8.273438 22.171875 -9.734375 C 22.171875 -11.535156 21.695312 -12.707031 20.75 -13.25 C 19.8125 -13.800781 18.65625 -14.078125 17.28125 -14.078125 L 9.375 -14.078125 L 9.375 -5.25 Z M 17.609375 -5.25 "/></g></g></g><g fill="#7d7b7b" fill-opacity="1"><g transform="translate(177.466991, 242.763294)"><g><path d="M 31.1875 -32.046875 C 31.945312 -32.046875 32.609375 -31.78125 33.171875 -31.25 C 33.734375 -30.71875 34.015625 -30.054688 34.015625 -29.265625 L 34.015625 -2.78125 C 34.015625 -1.988281 33.753906 -1.328125 33.234375 -0.796875 C 32.710938 -0.265625 32.03125 0 31.1875 0 C 30.332031 0 29.632812 -0.253906 29.09375 -0.765625 C 28.5625 -1.285156 28.296875 -1.957031 28.296875 -2.78125 L 28.296875 -21.21875 L 20.75 -9.6875 C 20.445312 -9.320312 20.097656 -9.023438 19.703125 -8.796875 C 19.304688 -8.566406 18.894531 -8.46875 18.46875 -8.5 C 18.070312 -8.46875 17.675781 -8.566406 17.28125 -8.796875 C 16.882812 -9.023438 16.535156 -9.320312 16.234375 -9.6875 L 8.6875 -21.625 L 8.6875 -2.78125 C 8.6875 -1.957031 8.441406 -1.285156 7.953125 -0.765625 C 7.460938 -0.253906 6.820312 0 6.03125 0 C 5.269531 0 4.644531 -0.265625 4.15625 -0.796875 C 3.664062 -1.328125 3.421875 -1.988281 3.421875 -2.78125 L 3.421875 -29.265625 C 3.421875 -30.023438 3.703125 -30.675781 4.265625 -31.21875 C 4.835938 -31.769531 5.519531 -32.046875 6.3125 -32.046875 C 6.769531 -32.046875 7.222656 -31.929688 7.671875 -31.703125 C 8.128906 -31.472656 8.484375 -31.175781 8.734375 -30.8125 L 18.703125 -15.5 L 28.9375 -30.8125 C 29.1875 -31.175781 29.515625 -31.472656 29.921875 -31.703125 C 30.335938 -31.929688 30.757812 -32.046875 31.1875 -32.046875 Z M 31.1875 -32.046875 "/></g></g></g><g fill="#7d7b7b" fill-opacity="1"><g transform="translate(217.869305, 242.763294)"><g><path d="M 9.140625 -2.78125 C 9.140625 -1.988281 8.847656 -1.328125 8.265625 -0.796875 C 7.691406 -0.265625 7.023438 0 6.265625 0 C 5.441406 0 4.757812 -0.265625 4.21875 -0.796875 C 3.6875 -1.328125 3.421875 -1.988281 3.421875 -2.78125 L 3.421875 -29.21875 C 3.421875 -30.007812 3.695312 -30.671875 4.25 -31.203125 C 4.800781 -31.734375 5.503906 -32 6.359375 -32 C 7.117188 -32 7.769531 -31.734375 8.3125 -31.203125 C 8.863281 -30.671875 9.140625 -30.007812 9.140625 -29.21875 Z M 9.140625 -2.78125 "/></g></g></g><g fill="#7d7b7b" fill-opacity="1"><g transform="translate(99.364092, 275.178059)"><g><path d="M 2.75 -8.0625 L 2.75 -5.640625 L 5.734375 -5.640625 C 5.972656 -5.640625 6.171875 -5.5625 6.328125 -5.40625 C 6.492188 -5.257812 6.578125 -5.066406 6.578125 -4.828125 C 6.578125 -4.617188 6.492188 -4.4375 6.328125 -4.28125 C 6.171875 -4.125 5.972656 -4.046875 5.734375 -4.046875 L 2.75 -4.046875 L 2.75 -0.84375 C 2.75 -0.601562 2.664062 -0.398438 2.5 -0.234375 C 2.332031 -0.078125 2.132812 0 1.90625 0 C 1.644531 0 1.429688 -0.078125 1.265625 -0.234375 C 1.109375 -0.390625 1.03125 -0.59375 1.03125 -0.84375 L 1.03125 -8.8125 C 1.03125 -9.050781 1.109375 -9.25 1.265625 -9.40625 C 1.429688 -9.5625 1.632812 -9.640625 1.875 -9.640625 L 6.359375 -9.640625 C 6.597656 -9.640625 6.796875 -9.5625 6.953125 -9.40625 C 7.109375 -9.257812 7.1875 -9.066406 7.1875 -8.828125 C 7.1875 -8.628906 7.109375 -8.453125 6.953125 -8.296875 C 6.796875 -8.140625 6.597656 -8.0625 6.359375 -8.0625 Z M 2.75 -8.0625 "/></g></g></g><g fill="#7d7b7b" fill-opacity="1"><g transform="translate(109.390435, 275.178059)"><g><path d="M 9.90625 -4.828125 C 9.90625 -3.910156 9.703125 -3.070312 9.296875 -2.3125 C 8.898438 -1.5625 8.34375 -0.960938 7.625 -0.515625 C 6.914062 -0.078125 6.113281 0.140625 5.21875 0.140625 C 4.332031 0.140625 3.53125 -0.078125 2.8125 -0.515625 C 2.101562 -0.960938 1.546875 -1.5625 1.140625 -2.3125 C 0.742188 -3.070312 0.546875 -3.910156 0.546875 -4.828125 C 0.546875 -5.734375 0.742188 -6.566406 1.140625 -7.328125 C 1.546875 -8.085938 2.101562 -8.6875 2.8125 -9.125 C 3.53125 -9.5625 4.332031 -9.78125 5.21875 -9.78125 C 6.113281 -9.78125 6.914062 -9.5625 7.625 -9.125 C 8.34375 -8.6875 8.898438 -8.085938 9.296875 -7.328125 C 9.703125 -6.566406 9.90625 -5.734375 9.90625 -4.828125 Z M 8.125 -4.828125 C 8.125 -5.441406 8 -6 7.75 -6.5 C 7.5 -7 7.148438 -7.394531 6.703125 -7.6875 C 6.265625 -7.976562 5.769531 -8.125 5.21875 -8.125 C 4.65625 -8.125 4.15625 -7.976562 3.71875 -7.6875 C 3.289062 -7.40625 2.953125 -7.007812 2.703125 -6.5 C 2.460938 -6 2.34375 -5.441406 2.34375 -4.828125 C 2.34375 -4.210938 2.460938 -3.648438 2.703125 -3.140625 C 2.953125 -2.640625 3.289062 -2.242188 3.71875 -1.953125 C 4.15625 -1.660156 4.65625 -1.515625 5.21875 -1.515625 C 5.769531 -1.515625 6.265625 -1.660156 6.703125 -1.953125 C 7.148438 -2.242188 7.5 -2.640625 7.75 -3.140625 C 8 -3.648438 8.125 -4.210938 8.125 -4.828125 Z M 8.125 -4.828125 "/></g></g></g><g fill="#7d7b7b" fill-opacity="1"><g transform="translate(122.129386, 275.178059)"><g><path d="M 8.59375 -1.34375 C 8.71875 -1.269531 8.8125 -1.171875 8.875 -1.046875 C 8.945312 -0.929688 8.984375 -0.8125 8.984375 -0.6875 C 8.984375 -0.519531 8.925781 -0.367188 8.8125 -0.234375 C 8.675781 -0.0664062 8.46875 0.015625 8.1875 0.015625 C 7.96875 0.015625 7.765625 -0.0351562 7.578125 -0.140625 C 6.921875 -0.515625 6.59375 -1.28125 6.59375 -2.4375 C 6.59375 -2.769531 6.484375 -3.03125 6.265625 -3.21875 C 6.046875 -3.414062 5.734375 -3.515625 5.328125 -3.515625 L 2.75 -3.515625 L 2.75 -0.84375 C 2.75 -0.59375 2.679688 -0.390625 2.546875 -0.234375 C 2.421875 -0.078125 2.25 0 2.03125 0 C 1.757812 0 1.523438 -0.078125 1.328125 -0.234375 C 1.128906 -0.398438 1.03125 -0.601562 1.03125 -0.84375 L 1.03125 -8.8125 C 1.03125 -9.050781 1.109375 -9.25 1.265625 -9.40625 C 1.429688 -9.5625 1.632812 -9.640625 1.875 -9.640625 L 5.84375 -9.640625 C 6.320312 -9.640625 6.769531 -9.507812 7.1875 -9.25 C 7.613281 -9 7.953125 -8.648438 8.203125 -8.203125 C 8.453125 -7.753906 8.578125 -7.25 8.578125 -6.6875 C 8.578125 -6.226562 8.453125 -5.78125 8.203125 -5.34375 C 7.960938 -4.90625 7.644531 -4.554688 7.25 -4.296875 C 7.832031 -3.890625 8.148438 -3.347656 8.203125 -2.671875 C 8.222656 -2.523438 8.234375 -2.382812 8.234375 -2.25 C 8.273438 -1.957031 8.3125 -1.75 8.34375 -1.625 C 8.382812 -1.507812 8.46875 -1.414062 8.59375 -1.34375 Z M 5.78125 -4.9375 C 5.9375 -4.9375 6.09375 -5.015625 6.25 -5.171875 C 6.40625 -5.328125 6.535156 -5.535156 6.640625 -5.796875 C 6.742188 -6.054688 6.796875 -6.335938 6.796875 -6.640625 C 6.796875 -6.898438 6.742188 -7.132812 6.640625 -7.34375 C 6.535156 -7.5625 6.40625 -7.734375 6.25 -7.859375 C 6.09375 -7.992188 5.9375 -8.0625 5.78125 -8.0625 L 2.75 -8.0625 L 2.75 -4.9375 Z M 5.78125 -4.9375 "/></g></g></g><g fill="#7d7b7b" fill-opacity="1"><g transform="translate(133.876931, 275.178059)"><g/></g></g><g fill="#7d7b7b" fill-opacity="1"><g transform="translate(140.020259, 275.178059)"><g><path d="M 6.828125 -5.34375 C 7.304688 -5.15625 7.695312 -4.863281 8 -4.46875 C 8.3125 -4.070312 8.46875 -3.5625 8.46875 -2.9375 C 8.46875 -1.84375 8.15625 -1.078125 7.53125 -0.640625 C 6.90625 -0.210938 6.164062 0 5.3125 0 L 1.875 0 C 1.632812 0 1.429688 -0.078125 1.265625 -0.234375 C 1.109375 -0.398438 1.03125 -0.601562 1.03125 -0.84375 L 1.03125 -8.8125 C 1.03125 -9.050781 1.109375 -9.25 1.265625 -9.40625 C 1.429688 -9.5625 1.632812 -9.640625 1.875 -9.640625 L 5.34375 -9.640625 C 7.09375 -9.640625 7.96875 -8.820312 7.96875 -7.1875 C 7.96875 -6.78125 7.867188 -6.414062 7.671875 -6.09375 C 7.472656 -5.78125 7.191406 -5.53125 6.828125 -5.34375 Z M 6.171875 -6.890625 C 6.171875 -7.265625 6.078125 -7.546875 5.890625 -7.734375 C 5.703125 -7.921875 5.4375 -8.015625 5.09375 -8.015625 L 2.828125 -8.015625 L 2.828125 -5.875 L 5.140625 -5.875 C 5.410156 -5.875 5.648438 -5.960938 5.859375 -6.140625 C 6.066406 -6.328125 6.171875 -6.578125 6.171875 -6.890625 Z M 5.3125 -1.578125 C 5.738281 -1.578125 6.070312 -1.691406 6.3125 -1.921875 C 6.5625 -2.160156 6.6875 -2.5 6.6875 -2.9375 C 6.6875 -3.476562 6.539062 -3.832031 6.25 -4 C 5.96875 -4.164062 5.617188 -4.25 5.203125 -4.25 L 2.828125 -4.25 L 2.828125 -1.578125 Z M 5.3125 -1.578125 "/></g></g></g><g fill="#7d7b7b" fill-opacity="1"><g transform="translate(151.327173, 275.178059)"><g><path d="M 6.484375 -1.578125 C 6.722656 -1.578125 6.921875 -1.5 7.078125 -1.34375 C 7.242188 -1.1875 7.328125 -1 7.328125 -0.78125 C 7.328125 -0.550781 7.242188 -0.363281 7.078125 -0.21875 C 6.921875 -0.0703125 6.722656 0 6.484375 0 L 1.875 0 C 1.632812 0 1.429688 -0.078125 1.265625 -0.234375 C 1.109375 -0.398438 1.03125 -0.601562 1.03125 -0.84375 L 1.03125 -8.8125 C 1.03125 -9.050781 1.109375 -9.25 1.265625 -9.40625 C 1.429688 -9.5625 1.632812 -9.640625 1.875 -9.640625 L 6.484375 -9.640625 C 6.722656 -9.640625 6.921875 -9.5625 7.078125 -9.40625 C 7.242188 -9.257812 7.328125 -9.066406 7.328125 -8.828125 C 7.328125 -8.597656 7.25 -8.410156 7.09375 -8.265625 C 6.9375 -8.128906 6.734375 -8.0625 6.484375 -8.0625 L 2.75 -8.0625 L 2.75 -5.71875 L 5.875 -5.71875 C 6.113281 -5.71875 6.3125 -5.640625 6.46875 -5.484375 C 6.632812 -5.335938 6.71875 -5.144531 6.71875 -4.90625 C 6.71875 -4.675781 6.640625 -4.488281 6.484375 -4.34375 C 6.328125 -4.207031 6.125 -4.140625 5.875 -4.140625 L 2.75 -4.140625 L 2.75 -1.578125 Z M 6.484375 -1.578125 "/></g></g></g><g fill="#7d7b7b" fill-opacity="1"><g transform="translate(161.491214, 275.178059)"><g><path d="M 7.375 -9.640625 C 7.625 -9.640625 7.828125 -9.566406 7.984375 -9.421875 C 8.140625 -9.273438 8.21875 -9.082031 8.21875 -8.84375 C 8.21875 -8.601562 8.140625 -8.410156 7.984375 -8.265625 C 7.828125 -8.128906 7.625 -8.0625 7.375 -8.0625 L 5.203125 -8.0625 L 5.203125 -0.84375 C 5.203125 -0.601562 5.113281 -0.398438 4.9375 -0.234375 C 4.769531 -0.078125 4.554688 0 4.296875 0 C 4.035156 0 3.820312 -0.078125 3.65625 -0.234375 C 3.5 -0.398438 3.421875 -0.601562 3.421875 -0.84375 L 3.421875 -8.0625 L 1.25 -8.0625 C 1 -8.0625 0.796875 -8.132812 0.640625 -8.28125 C 0.484375 -8.425781 0.40625 -8.617188 0.40625 -8.859375 C 0.40625 -9.085938 0.484375 -9.273438 0.640625 -9.421875 C 0.804688 -9.566406 1.007812 -9.640625 1.25 -9.640625 Z M 7.375 -9.640625 "/></g></g></g><g fill="#7d7b7b" fill-opacity="1"><g transform="translate(172.398812, 275.178059)"><g><path d="M 7.375 -9.640625 C 7.625 -9.640625 7.828125 -9.566406 7.984375 -9.421875 C 8.140625 -9.273438 8.21875 -9.082031 8.21875 -8.84375 C 8.21875 -8.601562 8.140625 -8.410156 7.984375 -8.265625 C 7.828125 -8.128906 7.625 -8.0625 7.375 -8.0625 L 5.203125 -8.0625 L 5.203125 -0.84375 C 5.203125 -0.601562 5.113281 -0.398438 4.9375 -0.234375 C 4.769531 -0.078125 4.554688 0 4.296875 0 C 4.035156 0 3.820312 -0.078125 3.65625 -0.234375 C 3.5 -0.398438 3.421875 -0.601562 3.421875 -0.84375 L 3.421875 -8.0625 L 1.25 -8.0625 C 1 -8.0625 0.796875 -8.132812 0.640625 -8.28125 C 0.484375 -8.425781 0.40625 -8.617188 0.40625 -8.859375 C 0.40625 -9.085938 0.484375 -9.273438 0.640625 -9.421875 C 0.804688 -9.566406 1.007812 -9.640625 1.25 -9.640625 Z M 7.375 -9.640625 "/></g></g></g><g fill="#7d7b7b" fill-opacity="1"><g transform="translate(183.306409, 275.178059)"><g><path d="M 6.484375 -1.578125 C 6.722656 -1.578125 6.921875 -1.5 7.078125 -1.34375 C 7.242188 -1.1875 7.328125 -1 7.328125 -0.78125 C 7.328125 -0.550781 7.242188 -0.363281 7.078125 -0.21875 C 6.921875 -0.0703125 6.722656 0 6.484375 0 L 1.875 0 C 1.632812 0 1.429688 -0.078125 1.265625 -0.234375 C 1.109375 -0.398438 1.03125 -0.601562 1.03125 -0.84375 L 1.03125 -8.8125 C 1.03125 -9.050781 1.109375 -9.25 1.265625 -9.40625 C 1.429688 -9.5625 1.632812 -9.640625 1.875 -9.640625 L 6.484375 -9.640625 C 6.722656 -9.640625 6.921875 -9.5625 7.078125 -9.40625 C 7.242188 -9.257812 7.328125 -9.066406 7.328125 -8.828125 C 7.328125 -8.597656 7.25 -8.410156 7.09375 -8.265625 C 6.9375 -8.128906 6.734375 -8.0625 6.484375 -8.0625 L 2.75 -8.0625 L 2.75 -5.71875 L 5.875 -5.71875 C 6.113281 -5.71875 6.3125 -5.640625 6.46875 -5.484375 C 6.632812 -5.335938 6.71875 -5.144531 6.71875 -4.90625 C 6.71875 -4.675781 6.640625 -4.488281 6.484375 -4.34375 C 6.328125 -4.207031 6.125 -4.140625 5.875 -4.140625 L 2.75 -4.140625 L 2.75 -1.578125 Z M 6.484375 -1.578125 "/></g></g></g><g fill="#7d7b7b" fill-opacity="1"><g transform="translate(193.47045, 275.178059)"><g><path d="M 8.59375 -1.34375 C 8.71875 -1.269531 8.8125 -1.171875 8.875 -1.046875 C 8.945312 -0.929688 8.984375 -0.8125 8.984375 -0.6875 C 8.984375 -0.519531 8.925781 -0.367188 8.8125 -0.234375 C 8.675781 -0.0664062 8.46875 0.015625 8.1875 0.015625 C 7.96875 0.015625 7.765625 -0.0351562 7.578125 -0.140625 C 6.921875 -0.515625 6.59375 -1.28125 6.59375 -2.4375 C 6.59375 -2.769531 6.484375 -3.03125 6.265625 -3.21875 C 6.046875 -3.414062 5.734375 -3.515625 5.328125 -3.515625 L 2.75 -3.515625 L 2.75 -0.84375 C 2.75 -0.59375 2.679688 -0.390625 2.546875 -0.234375 C 2.421875 -0.078125 2.25 0 2.03125 0 C 1.757812 0 1.523438 -0.078125 1.328125 -0.234375 C 1.128906 -0.398438 1.03125 -0.601562 1.03125 -0.84375 L 1.03125 -8.8125 C 1.03125 -9.050781 1.109375 -9.25 1.265625 -9.40625 C 1.429688 -9.5625 1.632812 -9.640625 1.875 -9.640625 L 5.84375 -9.640625 C 6.320312 -9.640625 6.769531 -9.507812 7.1875 -9.25 C 7.613281 -9 7.953125 -8.648438 8.203125 -8.203125 C 8.453125 -7.753906 8.578125 -7.25 8.578125 -6.6875 C 8.578125 -6.226562 8.453125 -5.78125 8.203125 -5.34375 C 7.960938 -4.90625 7.644531 -4.554688 7.25 -4.296875 C 7.832031 -3.890625 8.148438 -3.347656 8.203125 -2.671875 C 8.222656 -2.523438 8.234375 -2.382812 8.234375 -2.25 C 8.273438 -1.957031 8.3125 -1.75 8.34375 -1.625 C 8.382812 -1.507812 8.46875 -1.414062 8.59375 -1.34375 Z M 5.78125 -4.9375 C 5.9375 -4.9375 6.09375 -5.015625 6.25 -5.171875 C 6.40625 -5.328125 6.535156 -5.535156 6.640625 -5.796875 C 6.742188 -6.054688 6.796875 -6.335938 6.796875 -6.640625 C 6.796875 -6.898438 6.742188 -7.132812 6.640625 -7.34375 C 6.535156 -7.5625 6.40625 -7.734375 6.25 -7.859375 C 6.09375 -7.992188 5.9375 -8.0625 5.78125 -8.0625 L 2.75 -8.0625 L 2.75 -4.9375 Z M 5.78125 -4.9375 "/></g></g></g><g fill="#7d7b7b" fill-opacity="1"><g transform="translate(205.217999, 275.178059)"><g/></g></g><g fill="#7d7b7b" fill-opacity="1"><g transform="translate(211.361324, 275.178059)"><g><path d="M 8.015625 -9.640625 C 8.273438 -9.640625 8.484375 -9.5625 8.640625 -9.40625 C 8.796875 -9.25 8.875 -9.050781 8.875 -8.8125 L 8.875 -0.84375 C 8.875 -0.601562 8.789062 -0.398438 8.625 -0.234375 C 8.457031 -0.078125 8.25 0 8 0 C 7.769531 0 7.570312 -0.078125 7.40625 -0.234375 C 7.238281 -0.398438 7.15625 -0.601562 7.15625 -0.84375 L 7.15625 -4.046875 L 2.75 -4.046875 L 2.75 -0.84375 C 2.75 -0.601562 2.660156 -0.398438 2.484375 -0.234375 C 2.316406 -0.078125 2.117188 0 1.890625 0 C 1.640625 0 1.429688 -0.078125 1.265625 -0.234375 C 1.109375 -0.398438 1.03125 -0.601562 1.03125 -0.84375 L 1.03125 -8.8125 C 1.03125 -9.050781 1.113281 -9.25 1.28125 -9.40625 C 1.445312 -9.5625 1.660156 -9.640625 1.921875 -9.640625 C 2.148438 -9.640625 2.34375 -9.5625 2.5 -9.40625 C 2.664062 -9.25 2.75 -9.050781 2.75 -8.8125 L 2.75 -5.640625 L 7.15625 -5.640625 L 7.15625 -8.8125 C 7.15625 -9.050781 7.238281 -9.25 7.40625 -9.40625 C 7.582031 -9.5625 7.785156 -9.640625 8.015625 -9.640625 Z M 8.015625 -9.640625 "/></g></g></g><g fill="#7d7b7b" fill-opacity="1"><g transform="translate(223.549487, 275.178059)"><g><path d="M 6.484375 -1.578125 C 6.722656 -1.578125 6.921875 -1.5 7.078125 -1.34375 C 7.242188 -1.1875 7.328125 -1 7.328125 -0.78125 C 7.328125 -0.550781 7.242188 -0.363281 7.078125 -0.21875 C 6.921875 -0.0703125 6.722656 0 6.484375 0 L 1.875 0 C 1.632812 0 1.429688 -0.078125 1.265625 -0.234375 C 1.109375 -0.398438 1.03125 -0.601562 1.03125 -0.84375 L 1.03125 -8.8125 C 1.03125 -9.050781 1.109375 -9.25 1.265625 -9.40625 C 1.429688 -9.5625 1.632812 -9.640625 1.875 -9.640625 L 6.484375 -9.640625 C 6.722656 -9.640625 6.921875 -9.5625 7.078125 -9.40625 C 7.242188 -9.257812 7.328125 -9.066406 7.328125 -8.828125 C 7.328125 -8.597656 7.25 -8.410156 7.09375 -8.265625 C 6.9375 -8.128906 6.734375 -8.0625 6.484375 -8.0625 L 2.75 -8.0625 L 2.75 -5.71875 L 5.875 -5.71875 C 6.113281 -5.71875 6.3125 -5.640625 6.46875 -5.484375 C 6.632812 -5.335938 6.71875 -5.144531 6.71875 -4.90625 C 6.71875 -4.675781 6.640625 -4.488281 6.484375 -4.34375 C 6.328125 -4.207031 6.125 -4.140625 5.875 -4.140625 L 2.75 -4.140625 L 2.75 -1.578125 Z M 6.484375 -1.578125 "/></g></g></g><g fill="#7d7b7b" fill-opacity="1"><g transform="translate(233.713522, 275.178059)"><g><path d="M 8.59375 -1.078125 C 8.644531 -0.953125 8.671875 -0.84375 8.671875 -0.75 C 8.671875 -0.507812 8.59375 -0.3125 8.4375 -0.15625 C 8.28125 -0.0078125 8.097656 0.0625 7.890625 0.0625 C 7.734375 0.0625 7.585938 0.015625 7.453125 -0.078125 C 7.316406 -0.179688 7.210938 -0.320312 7.140625 -0.5 L 6.421875 -2.15625 L 2.3125 -2.15625 L 1.59375 -0.484375 C 1.53125 -0.304688 1.429688 -0.171875 1.296875 -0.078125 C 1.171875 0.015625 1.03125 0.0625 0.875 0.0625 C 0.632812 0.0625 0.453125 0 0.328125 -0.125 C 0.203125 -0.25 0.140625 -0.421875 0.140625 -0.640625 C 0.140625 -0.722656 0.148438 -0.8125 0.171875 -0.90625 L 3.609375 -9.15625 C 3.679688 -9.332031 3.789062 -9.472656 3.9375 -9.578125 C 4.082031 -9.679688 4.25 -9.722656 4.4375 -9.703125 C 4.601562 -9.703125 4.753906 -9.648438 4.890625 -9.546875 C 5.035156 -9.453125 5.140625 -9.320312 5.203125 -9.15625 Z M 2.984375 -3.75 L 5.75 -3.75 L 4.359375 -6.96875 Z M 2.984375 -3.75 "/></g></g></g><g fill="#7d7b7b" fill-opacity="1"><g transform="translate(244.800123, 275.178059)"><g><path d="M 6.359375 -1.609375 C 6.597656 -1.609375 6.796875 -1.53125 6.953125 -1.375 C 7.109375 -1.226562 7.1875 -1.035156 7.1875 -0.796875 C 7.1875 -0.566406 7.109375 -0.375 6.953125 -0.21875 C 6.796875 -0.0703125 6.597656 0 6.359375 0 L 1.875 0 C 1.632812 0 1.429688 -0.078125 1.265625 -0.234375 C 1.109375 -0.398438 1.03125 -0.601562 1.03125 -0.84375 L 1.03125 -8.8125 C 1.03125 -9.050781 1.113281 -9.25 1.28125 -9.40625 C 1.445312 -9.5625 1.660156 -9.640625 1.921875 -9.640625 C 2.148438 -9.640625 2.34375 -9.5625 2.5 -9.40625 C 2.664062 -9.25 2.75 -9.050781 2.75 -8.8125 L 2.75 -1.609375 Z M 6.359375 -1.609375 "/></g></g></g><g fill="#7d7b7b" fill-opacity="1"><g transform="translate(254.826462, 275.178059)"><g><path d="M 7.375 -9.640625 C 7.625 -9.640625 7.828125 -9.566406 7.984375 -9.421875 C 8.140625 -9.273438 8.21875 -9.082031 8.21875 -8.84375 C 8.21875 -8.601562 8.140625 -8.410156 7.984375 -8.265625 C 7.828125 -8.128906 7.625 -8.0625 7.375 -8.0625 L 5.203125 -8.0625 L 5.203125 -0.84375 C 5.203125 -0.601562 5.113281 -0.398438 4.9375 -0.234375 C 4.769531 -0.078125 4.554688 0 4.296875 0 C 4.035156 0 3.820312 -0.078125 3.65625 -0.234375 C 3.5 -0.398438 3.421875 -0.601562 3.421875 -0.84375 L 3.421875 -8.0625 L 1.25 -8.0625 C 1 -8.0625 0.796875 -8.132812 0.640625 -8.28125 C 0.484375 -8.425781 0.40625 -8.617188 0.40625 -8.859375 C 0.40625 -9.085938 0.484375 -9.273438 0.640625 -9.421875 C 0.804688 -9.566406 1.007812 -9.640625 1.25 -9.640625 Z M 7.375 -9.640625 "/></g></g></g><g fill="#7d7b7b" fill-opacity="1"><g transform="translate(265.734054, 275.178059)"><g><path d="M 8.015625 -9.640625 C 8.273438 -9.640625 8.484375 -9.5625 8.640625 -9.40625 C 8.796875 -9.25 8.875 -9.050781 8.875 -8.8125 L 8.875 -0.84375 C 8.875 -0.601562 8.789062 -0.398438 8.625 -0.234375 C 8.457031 -0.078125 8.25 0 8 0 C 7.769531 0 7.570312 -0.078125 7.40625 -0.234375 C 7.238281 -0.398438 7.15625 -0.601562 7.15625 -0.84375 L 7.15625 -4.046875 L 2.75 -4.046875 L 2.75 -0.84375 C 2.75 -0.601562 2.660156 -0.398438 2.484375 -0.234375 C 2.316406 -0.078125 2.117188 0 1.890625 0 C 1.640625 0 1.429688 -0.078125 1.265625 -0.234375 C 1.109375 -0.398438 1.03125 -0.601562 1.03125 -0.84375 L 1.03125 -8.8125 C 1.03125 -9.050781 1.113281 -9.25 1.28125 -9.40625 C 1.445312 -9.5625 1.660156 -9.640625 1.921875 -9.640625 C 2.148438 -9.640625 2.34375 -9.5625 2.5 -9.40625 C 2.664062 -9.25 2.75 -9.050781 2.75 -8.8125 L 2.75 -5.640625 L 7.15625 -5.640625 L 7.15625 -8.8125 C 7.15625 -9.050781 7.238281 -9.25 7.40625 -9.40625 C 7.582031 -9.5625 7.785156 -9.640625 8.015625 -9.640625 Z M 8.015625 -9.640625 "/></g></g></g></svg>